<?xml version="1.0" standalone="no"?>
<!DOCTYPE svg PUBLIC "-//W3C//DTD SVG 20010904//EN"
 "http://www.w3.org/TR/2001/REC-SVG-20010904/DTD/svg10.dtd">
<svg version="1.0" xmlns="http://www.w3.org/2000/svg"
 width="630.000000pt" height="768.000000pt" viewBox="0 0 630.000000 768.000000"
 preserveAspectRatio="xMidYMid meet">

<g transform="translate(0.000000,768.000000) scale(0.100000,-0.100000)"
fill="#000000" stroke="none">
<path d="M4890 7595 c-310 -210 -784 -392 -1206 -464 -482 -81 -1025 -39
-1499 116 -266 87 -531 210 -734 342 -118 77 -127 81 -180 81 -35 0 -68 -7
-88 -17 -17 -10 -77 -70 -134 -133 -56 -63 -134 -149 -173 -190 -39 -42 -97
-107 -130 -145 -114 -136 -729 -815 -737 -815 -15 0 -10 -47 5 -53 17 -7 187
-343 264 -522 65 -153 184 -496 231 -670 89 -325 141 -717 127 -950 -3 -49
-10 -178 -15 -285 -11 -231 -28 -383 -76 -700 -25 -160 -39 -298 -46 -435 -9
-203 -4 -423 12 -479 5 -17 9 -44 9 -60 0 -55 86 -390 122 -476 6 -14 30 -72
53 -130 121 -298 297 -579 508 -814 58 -63 299 -286 311 -286 6 0 99 -62 106
-71 3 -3 21 -14 40 -24 19 -10 49 -28 65 -40 41 -30 250 -135 355 -178 79 -33
329 -111 430 -135 105 -25 349 -51 535 -57 273 -9 515 11 819 69 148 29 562
202 725 303 614 382 1055 1056 1188 1813 25 141 27 176 26 400 -1 266 -23 489
-79 804 -8 43 -14 102 -14 131 0 29 -7 90 -15 136 -10 61 -15 187 -17 464 -3
358 -2 388 20 525 72 443 218 890 450 1370 43 91 96 192 116 225 20 33 36 70
36 82 0 15 -47 75 -138 175 -128 143 -576 649 -863 976 -143 163 -179 193
-241 198 -40 4 -51 -1 -168 -81z m-3454 -391 c306 -173 594 -282 964 -367 529
-122 1111 -115 1631 19 329 84 638 209 899 363 63 37 88 47 101 40 10 -5 134
-141 276 -301 142 -161 333 -377 425 -480 150 -169 167 -191 158 -212 -5 -13
-28 -64 -53 -112 -24 -49 -57 -120 -72 -158 -20 -46 -46 -85 -80 -120 -56 -57
-367 -347 -639 -596 -100 -91 -271 -251 -381 -355 -110 -105 -263 -249 -340
-321 -77 -71 -250 -233 -385 -359 -135 -127 -408 -381 -605 -566 -198 -184
-531 -495 -740 -690 -1488 -1390 -1508 -1408 -1525 -1399 -9 5 -46 86 -82 182
-65 170 -123 391 -148 570 -12 82 -15 322 -5 425 16 171 37 349 56 468 19 123
46 369 70 640 7 72 9 243 6 425 -5 291 -7 314 -40 511 -72 419 -253 962 -452
1359 -45 90 -55 119 -49 136 5 13 144 172 309 356 165 183 354 394 420 468
110 124 134 149 143 150 2 0 64 -34 138 -76z m3149 -4139 l0 -120 -92 -3 -93
-3 0 126 0 126 93 -3 92 -3 0 -120z m-435 -75 l0 -111 -87 3 -88 3 -3 108 -3
107 91 0 90 0 0 -110z m-390 -111 l0 -100 -85 2 -85 2 0 98 0 99 85 0 85 0 0
-101z m915 28 c46 -17 61 -27 63 -45 4 -27 1 -27 -76 -1 -53 18 -62 24 -62 45
0 29 -1 29 75 1z m-1305 -102 l0 -85 -80 0 -80 0 0 85 0 85 80 0 80 0 0 -85z
m920 3 c0 -22 -9 -22 -77 -1 -43 14 -53 21 -53 39 l0 22 65 -21 c48 -16 65
-26 65 -39z m298 40 c-3 -22 -8 -23 -95 -26 l-93 -3 0 26 0 25 96 0 c93 0 95
-1 92 -22z m-438 -58 c0 -19 -7 -20 -90 -20 -83 0 -90 1 -90 20 0 19 7 20 90
20 83 0 90 -1 90 -20z m525 -3 c46 -17 61 -27 63 -45 4 -27 1 -27 -76 -1 -53
18 -62 24 -62 45 0 29 -1 29 75 1z m-1675 -72 l0 -75 -75 0 -75 0 0 75 0 75
75 0 75 0 0 -75z m840 38 c46 -12 60 -21 60 -35 0 -15 -5 -17 -27 -12 -64 16
-98 32 -101 47 -4 21 -5 21 68 0z m397 -20 c45 -14 53 -20 53 -41 0 -15 -5
-22 -12 -20 -7 3 -37 13 -65 22 -40 13 -53 23 -53 37 0 23 9 24 77 2z m353
-458 l0 -475 -95 0 -95 0 0 475 0 475 95 0 95 0 0 -475z m-830 435 c0 -18 -7
-20 -85 -20 -78 0 -85 2 -85 20 0 18 7 20 85 20 78 0 85 -2 85 -20z m-284 -30
c28 -11 34 -44 7 -36 -10 2 -37 10 -60 17 -55 16 -61 45 -7 34 20 -3 47 -10
60 -15z m674 -415 l0 -436 -87 3 -88 3 -3 433 -2 432 90 0 90 0 0 -435z m-304
389 c42 -12 54 -20 54 -35 0 -15 -5 -19 -19 -14 -10 3 -38 11 -62 18 -27 8
-45 20 -47 30 -4 21 6 21 74 1z m-476 -9 c0 -12 -16 -15 -80 -15 -64 0 -80 3
-80 15 0 12 16 15 80 15 64 0 80 -3 80 -15z m-302 -30 c31 -10 52 -22 52 -30
0 -12 -7 -12 -47 0 -27 8 -51 15 -55 15 -5 0 -8 7 -8 15 0 18 -5 18 58 0z
m692 -370 l0 -385 -85 0 -85 0 0 385 0 385 85 0 85 0 0 -385z m-262 321 c3
-13 -1 -17 -15 -13 -10 3 -37 11 -60 18 -30 8 -43 18 -43 30 0 16 3 16 57 0
39 -12 59 -23 61 -35z m-498 9 c0 -12 -15 -15 -75 -15 -60 0 -75 3 -75 15 0
12 15 15 75 15 60 0 75 -3 75 -15z m368 -352 l-3 -348 -77 -3 -78 -3 0 351 0
350 80 0 80 0 -2 -347z m-270 306 c22 -9 31 -29 11 -29 -34 0 -99 24 -99 37 0
15 35 12 88 -8z m-98 -319 l0 -300 -75 0 -75 0 0 300 0 300 75 0 75 0 0 -300z"/>
<path d="M2171 6754 l-85 -52 -46 23 c-104 53 -186 70 -330 70 -114 0 -147 -4
-210 -23 -150 -48 -273 -128 -365 -239 -171 -207 -219 -479 -129 -739 l24 -71
-55 -133 c-30 -73 -54 -134 -52 -136 1 -2 45 24 97 56 52 33 100 59 105 59 6
0 46 -33 89 -74 l79 -75 -11 -127 c-11 -120 -65 -721 -77 -863 -3 -36 -8 -85
-11 -110 -4 -41 103 256 293 808 48 139 70 192 79 188 8 -3 53 -8 102 -12 l88
-7 25 -61 c261 -634 324 -784 327 -781 3 3 -75 638 -98 797 -15 103 -15 105
33 129 23 12 61 35 84 50 23 16 44 29 46 29 3 0 127 -99 277 -220 149 -121
273 -220 275 -220 2 0 -93 127 -212 281 -201 262 -215 283 -203 303 8 11 29
46 47 76 18 30 36 60 40 67 6 9 33 9 118 -2 556 -71 675 -86 705 -92 19 -3 33
-3 30 -1 -3 3 -178 83 -390 178 -212 96 -388 176 -391 179 -4 3 -10 42 -13 87
l-7 81 393 163 c216 89 404 169 418 176 24 13 23 14 -15 9 -22 -3 -211 -21
-420 -40 -209 -19 -401 -37 -426 -41 -46 -6 -47 -5 -77 39 -17 24 -52 66 -77
92 l-47 47 33 90 c17 49 30 90 28 92 -2 1 -42 -21 -88 -50z m-251 -60 c260
-86 441 -323 457 -600 7 -116 -14 -219 -69 -334 -33 -69 -56 -100 -127 -170
-137 -137 -287 -200 -470 -200 -182 0 -336 65 -467 195 -91 90 -140 170 -176
285 -19 61 -23 97 -22 195 0 104 4 131 28 200 81 237 282 412 519 455 90 16
235 4 327 -26z"/>
<path d="M2112 6427 c-19 -21 -22 -29 -13 -45 6 -12 11 -54 11 -95 0 -82 -4
-87 -65 -87 -31 0 -35 3 -45 40 -8 31 -17 41 -38 46 -15 3 -40 10 -56 15 -42
13 -48 11 -44 -13 2 -15 13 -25 31 -30 15 -5 39 -11 54 -16 15 -4 29 -15 31
-25 3 -15 -6 -17 -72 -17 l-75 0 -3 33 -3 32 -80 3 c-111 3 -112 4 -77 52 20
28 28 48 24 65 -2 14 -6 25 -7 25 -9 0 -125 -173 -120 -178 8 -8 11 -9 128
-10 l98 -2 -3 -37 c-2 -26 -8 -38 -18 -38 -8 0 -14 6 -12 14 7 33 -19 41 -125
41 -92 0 -109 3 -135 22 -27 19 -34 20 -62 9 -77 -32 -76 -33 -76 58 0 44 -4
81 -9 81 -16 0 -41 -31 -41 -51 0 -12 -12 -24 -35 -33 -37 -16 -55 -47 -55
-96 l0 -28 84 -3 c72 -3 88 -7 106 -26 25 -27 56 -29 82 -6 14 13 43 18 112
21 l94 4 28 -31 c36 -40 69 -41 92 -1 17 29 19 30 94 30 67 0 79 -3 88 -20 14
-25 30 -26 30 -1 0 22 19 31 66 31 43 0 46 10 42 168 l-3 124 -23 -25z m-794
-200 c3 -12 -4 -17 -22 -17 -27 0 -37 24 -13 33 19 8 32 2 35 -16z m148 -38
c8 -14 -11 -33 -25 -25 -11 7 -4 36 9 36 5 0 12 -5 16 -11z"/>
<path d="M1230 6421 c-9 -18 -7 -23 15 -31 37 -14 72 -12 78 3 9 23 -8 40 -32
32 -12 -4 -28 -2 -36 5 -11 9 -16 7 -25 -9z"/>
<path d="M2182 6298 c2 -87 7 -143 13 -143 13 0 25 244 13 268 -22 43 -28 12
-26 -125z"/>
<path d="M1784 5954 c-20 -18 -21 -25 -15 -144 l6 -125 38 -6 c21 -3 47 -16
58 -27 26 -28 44 -28 81 3 24 20 41 25 84 25 l54 0 0 82 0 81 -21 -19 c-16
-14 -20 -27 -16 -50 3 -17 0 -37 -6 -43 -18 -18 -72 -13 -92 9 -21 24 -67 26
-85 5 -7 -8 -23 -15 -36 -15 -23 0 -23 1 -26 121 l-3 121 -21 -18z m146 -249
c0 -16 -27 -32 -37 -22 -3 4 -3 13 0 22 8 20 37 20 37 0z"/>
<path d="M1364 5951 c-2 -2 -4 -13 -4 -23 0 -15 8 -18 45 -18 32 0 47 5 52 15
3 9 3 18 0 21 -7 7 -87 11 -93 5z"/>
<path d="M1645 5930 c-8 -26 7 -45 30 -36 21 8 16 50 -7 54 -10 2 -19 -5 -23
-18z"/>
<path d="M1463 5885 c-13 -9 -23 -27 -23 -39 0 -18 -7 -25 -29 -29 -45 -9 -61
-32 -61 -88 l0 -49 185 0 c147 0 187 3 191 13 3 8 4 44 2 81 -3 65 -4 67 -23
52 -14 -10 -20 -26 -20 -53 0 -38 0 -38 -40 -38 -39 0 -40 1 -45 40 l-5 40
-22 -22 c-14 -14 -20 -29 -16 -42 5 -18 1 -21 -30 -21 l-36 0 -3 85 -3 85 -22
-15z m-23 -135 c0 -13 -7 -20 -20 -20 -19 0 -27 20 -13 33 13 14 33 6 33 -13z"/>
<path d="M1513 5604 c-8 -22 16 -46 35 -35 10 6 24 6 34 0 19 -10 34 8 26 33
-6 18 -88 20 -95 2z"/>
<path d="M2004 5605 c-9 -23 3 -32 43 -30 31 1 38 5 38 20 0 16 -8 20 -38 22
-25 1 -40 -3 -43 -12z"/>
<path d="M4038 5848 c-6 -110 1 -142 34 -146 20 -2 74 -57 235 -238 114 -128
214 -234 222 -234 8 0 80 64 160 142 80 79 176 172 213 207 l67 65 36 -17 c43
-21 104 -22 130 -3 18 13 15 15 -33 36 -77 33 -79 40 -27 89 25 24 45 49 45
57 0 18 -59 84 -75 84 -7 0 -28 -17 -46 -37 -49 -58 -52 -58 -131 -17 -52 26
-89 38 -133 42 -71 5 -98 -6 -180 -73 -55 -44 -97 -63 -152 -67 -18 -1 -33 -5
-33 -8 0 -3 24 -29 53 -58 71 -70 85 -69 178 14 41 36 89 73 108 81 43 19 114
10 142 -18 20 -20 19 -21 -147 -182 -91 -89 -172 -163 -179 -165 -8 -2 -118
114 -245 257 -127 144 -233 261 -234 261 -2 0 -6 -33 -8 -72z"/>
<path d="M4112 5406 c-6 -19 -26 -62 -46 -94 -71 -118 -77 -213 -15 -277 48
-51 41 -66 -82 -184 -61 -58 -116 -108 -121 -110 -12 -4 0 145 13 171 5 9 22
19 39 23 54 12 23 72 -32 61 -17 -3 -41 0 -58 9 -40 20 -58 19 -145 -11 -54
-19 -83 -24 -103 -18 -44 13 -46 11 -43 -43 2 -39 -4 -67 -24 -112 -22 -49
-26 -68 -21 -108 4 -26 7 -68 6 -92 0 -28 6 -51 16 -62 23 -26 34 -24 34 6 0
43 33 65 95 65 l55 0 0 40 c0 45 -18 60 -75 60 -46 0 -52 17 -26 76 12 25 21
53 21 60 0 8 2 14 5 14 2 0 29 7 60 15 89 23 89 22 82 -122 -4 -68 -11 -132
-16 -141 -18 -33 -192 -197 -210 -197 -14 0 -212 215 -303 329 -24 29 -37 13
-48 -60 -6 -32 -12 -71 -16 -85 -5 -24 -2 -27 28 -33 19 -3 46 -18 59 -32 l24
-25 -44 -37 c-51 -42 -71 -84 -71 -145 0 -79 29 -136 124 -241 37 -42 47 -49
65 -40 11 5 126 114 256 242 209 208 235 237 235 266 0 41 16 56 57 56 30 0
58 24 279 237 134 131 243 243 242 249 -3 13 -231 275 -267 308 -19 17 -20 17
-29 -18z m102 -213 c20 -25 36 -50 36 -54 0 -17 -63 -79 -80 -79 -23 0 -63 79
-54 106 29 90 45 95 98 27z m-830 -805 c20 -23 36 -47 36 -55 0 -7 -20 -33
-44 -59 -39 -40 -47 -44 -65 -35 -27 15 -51 62 -51 100 0 35 43 91 70 91 10 0
35 -19 54 -42z"/>
<path d="M4924 5406 c-3 -7 -4 -38 -2 -67 l3 -54 41 -3 c50 -4 59 7 67 75 7
58 2 63 -64 63 -24 0 -42 -5 -45 -14z"/>
<path d="M2972 4818 c-6 -6 -12 -31 -12 -55 0 -50 -16 -63 -72 -56 l-38 6 0
-61 c0 -57 2 -62 24 -68 13 -3 37 -4 52 -2 26 3 29 7 32 43 4 51 12 58 69 65
l47 5 3 52 c3 42 0 54 -14 61 -34 18 -78 23 -91 10z"/>
<path d="M2718 3973 c-155 -156 -188 -201 -188 -258 0 -35 -14 -31 -51 15 -18
22 -35 40 -38 40 -3 0 -7 -33 -8 -73 -1 -39 -4 -85 -5 -102 -3 -27 0 -30 31
-35 24 -4 43 -16 64 -43 l31 -37 -49 -50 c-27 -28 -56 -50 -65 -50 -9 0 -53
43 -98 95 -46 52 -87 95 -93 95 -5 0 -9 -48 -9 -110 l0 -110 30 0 c28 0 80
-39 80 -60 0 -15 -262 -265 -278 -265 -14 0 -17 8 -15 40 6 98 32 145 82 145
12 0 21 4 21 8 0 17 -38 43 -61 43 -13 1 -47 8 -75 16 -50 16 -53 16 -137 -12
-88 -30 -90 -30 -147 2 -3 2 -6 -29 -7 -67 -1 -52 -9 -86 -27 -127 -30 -63
-32 -91 -11 -119 10 -13 13 -33 9 -64 -3 -31 0 -51 10 -64 18 -22 36 -13 36
18 0 33 19 46 70 46 56 0 75 12 76 47 1 15 3 35 5 43 3 12 -8 16 -54 18 -67 4
-76 15 -51 64 10 18 20 46 23 62 6 26 13 31 65 44 83 20 85 17 79 -138 l-5
-125 -107 -107 c-59 -60 -112 -108 -118 -108 -9 0 -252 270 -422 468 -66 77
-73 71 -69 -59 l3 -92 37 -11 c28 -8 58 -35 125 -112 226 -259 316 -359 327
-362 6 -1 80 63 164 144 132 126 153 151 158 184 6 34 10 38 43 44 32 5 75 42
307 267 325 315 489 469 499 469 4 0 20 -11 37 -25 33 -28 60 -30 153 -13 52
10 64 16 60 29 -3 8 2 35 10 59 19 53 19 91 1 135 -20 46 -254 315 -275 315
-9 0 -87 -71 -173 -157z m267 -105 c94 -101 107 -128 80 -158 -28 -31 -45 -24
-107 42 l-57 62 -108 -104 c-59 -57 -115 -113 -125 -124 -36 -44 -64 31 -38
101 10 26 246 273 262 273 3 0 45 -42 93 -92z"/>
<path d="M1907 3783 c-12 -11 -8 -98 5 -111 7 -7 29 -12 50 -12 45 0 58 19 58
84 l0 46 -53 0 c-30 0 -57 -3 -60 -7z"/>
<path d="M1220 2721 c0 -6 5 -13 10 -16 21 -13 9 -59 -30 -117 -31 -47 -40
-70 -40 -103 0 -75 69 -148 153 -160 l42 -7 0 -72 c0 -62 4 -78 28 -114 38
-58 53 -55 49 8 -2 28 -1 63 3 77 3 15 47 68 96 118 49 50 89 98 89 107 0 18
-47 68 -64 68 -6 0 -27 -18 -46 -41 -40 -48 -96 -79 -140 -79 -37 0 -90 47
-90 79 0 28 34 60 70 68 39 7 38 18 -5 58 -19 18 -37 43 -40 56 -8 31 -25 53
-52 67 -26 14 -33 15 -33 3z"/>
</g>
</svg>
